name Walk6.mot
datacolumns 19
datarows 10
range 2.14100000 2.15000000
endheader

                time	   L_ground_force_vx	   L_ground_force_vy	   L_ground_force_vz	   L_ground_force_px	   L_ground_force_py	   L_ground_force_pz	   R_ground_force_vx	   R_ground_force_vy	   R_ground_force_vz	   R_ground_force_px	   R_ground_force_py	   R_ground_force_pz	   L_ground_torque_x	   L_ground_torque_y	   L_ground_torque_z	   R_ground_torque_x	   R_ground_torque_y	   R_ground_torque_z	
          2.14100000	          9.54038682	         51.02193854	          0.97728258	          0.25938626	          0.00000000	          0.03566410	          0.00000000	          0.00000000	          0.00000000	          0.00000000	          0.00000000	          0.00000000	          0.00000000	         -2.43722021	          0.00000000	          0.00000000	          0.00000000	          0.00000000	
          2.14200000	          7.77187469	         46.67904311	          0.30279378	          0.26193951	          0.00000000	          0.03645130	          0.00000000	          0.00000000	          0.00000000	          0.00000000	          0.00000000	          0.00000000	          0.00000000	         -2.01296853	          0.00000000	          0.00000000	          0.00000000	          0.00000000	
          2.14300000	          6.10959644	         42.66096107	         -0.37452497	          0.26479929	          0.00000000	          0.03701395	          0.00000000	          0.00000000	          0.00000000	          0.00000000	          0.00000000	          0.00000000	          0.00000000	         -1.60880561	          0.00000000	          0.00000000	          0.00000000	          0.00000000	
          2.14400000	          4.55767933	         38.83683080	         -1.05460665	          0.26787162	          0.00000000	          0.03718065	          0.00000000	          0.00000000	          0.00000000	          0.00000000	          0.00000000	          0.00000000	          0.00000000	         -1.22828088	          0.00000000	          0.00000000	          0.00000000	          0.00000000	
          2.14500000	          3.13273558	         35.07804579	         -1.72052021	          0.27099544	          0.00000000	          0.03655836	          0.00000000	          0.00000000	          0.00000000	          0.00000000	          0.00000000	          0.00000000	          0.00000000	         -0.87278829	          0.00000000	          0.00000000	          0.00000000	          0.00000000	
          2.14600000	          1.86141368	         31.28868871	         -2.32514277	          0.27424000	          0.00000000	          0.03494009	          0.00000000	          0.00000000	          0.00000000	          0.00000000	          0.00000000	          0.00000000	          0.00000000	         -0.55154973	          0.00000000	          0.00000000	          0.00000000	          0.00000000	
          2.14700000	          0.78026591	         27.35881234	         -2.78573524	          0.27785185	          0.00000000	          0.03253679	          0.00000000	          0.00000000	          0.00000000	          0.00000000	          0.00000000	          0.00000000	          0.00000000	         -0.28255291	          0.00000000	          0.00000000	          0.00000000	          0.00000000	
          2.14800000	         -0.05395888	         23.11040570	         -2.99109707	          0.28187288	          0.00000000	          0.02991391	          0.00000000	          0.00000000	          0.00000000	          0.00000000	          0.00000000	          0.00000000	          0.00000000	         -0.08298767	          0.00000000	          0.00000000	          0.00000000	          0.00000000	
          2.14900000	         -0.57700294	         18.35083436	         -2.84440232	          0.28614957	          0.00000000	          0.02772196	          0.00000000	          0.00000000	          0.00000000	          0.00000000	          0.00000000	          0.00000000	          0.00000000	          0.04061923	          0.00000000	          0.00000000	          0.00000000	          0.00000000	
          2.15000000	         -0.76622798	         13.13015476	         -2.33881258	          0.29063487	          0.00000000	          0.02622258	          0.00000000	          0.00000000	          0.00000000	          0.00000000	          0.00000000	          0.00000000	          0.00000000	          0.09423710	          0.00000000	          0.00000000	          0.00000000	          0.00000000	
